<svg width="24" height="24" viewBox="0 0 24 24" fill="none" xmlns="http://www.w3.org/2000/svg"><path d="M13.3921 0.921515L21.3841 5.53551C22.1266 5.96422 22.584 6.7565 22.5841 7.61391V16.8431C22.584 17.7005 22.1266 18.4928 21.3841 18.9215L13.3921 23.5355C12.6495 23.9642 11.7346 23.9642 10.9921 23.5355L3.00005 18.9215C2.25751 18.4928 1.80007 17.7005 1.80005 16.8431V7.61391C1.80007 6.7565 2.25751 5.96422 3.00005 5.53551L10.9921 0.921515C11.7346 0.492796 12.6495 0.492796 13.3921 0.921515Z" fill="white" fill-opacity="0.24"/><g clip-path="url(#clip0_308_241)"><path d="M6.95404 9.43785C8.42106 10.9999 10.4879 11.9027 12.6855 11.8967C14.4198 11.8908 16.065 11.3147 17.4073 10.2575L17.0687 9.59228C15.8452 10.6138 14.3069 11.1721 12.6855 11.1781C10.583 11.184 8.61705 10.2694 7.28664 8.70138L6.95404 9.43785ZM6.31853 12.8292C9.40698 15.4663 13.8259 15.9593 17.3895 14.0943L17.3716 13.2806C13.909 15.2822 9.48419 14.7833 6.49671 12.0215L6.31853 12.8292ZM9.26444 16.9096L10.1138 17.1055C9.71583 16.1493 9.50201 15.1396 9.48419 14.1002C9.31789 11.1484 10.5889 8.33314 12.8577 6.47413L12.0975 6.17716C9.84649 8.17277 8.60517 11.0771 8.76553 14.1121C8.77741 15.0624 8.94966 16.0008 9.26444 16.9096ZM13.1784 17.4976L13.8496 17.2006C12.739 15.6326 12.1331 13.7736 12.1331 11.8314C12.1331 9.99022 12.6677 8.23217 13.6714 6.73545L12.9706 6.486C11.955 8.07774 11.4145 9.92488 11.4145 11.8314C11.4145 13.8805 12.0322 15.8345 13.1784 17.4976ZM16.6767 15.2881L17.1578 14.7417C15.1622 13.5954 13.915 11.4988 13.8853 9.17059C13.8734 8.33908 14.0219 7.51351 14.3188 6.75327L13.6239 6.55727C13.3091 7.38878 13.1547 8.2678 13.1666 9.17652C13.1963 11.7007 14.5326 14.0052 16.6767 15.2881ZM9.47826 11.8255C9.98309 11.8255 10.3989 11.4038 10.3989 10.893C10.3989 10.3822 9.98309 9.96645 9.47826 9.96645C8.96153 9.96645 8.54578 10.3822 8.54578 10.893C8.54578 11.4038 8.96153 11.8255 9.47826 11.8255ZM14.0278 12.3184C14.5267 12.3184 14.9365 11.9086 14.9365 11.3978C14.9365 10.8989 14.5267 10.4891 14.0278 10.4891C13.517 10.4891 13.1072 10.8989 13.1072 11.3978C13.1072 11.9086 13.517 12.3184 14.0278 12.3184ZM12.2579 15.7514C12.7686 15.7514 13.1784 15.3415 13.1784 14.8248C13.1784 14.3141 12.7686 13.8983 12.2579 13.8983C11.7411 13.8983 11.3254 14.3141 11.3254 14.8248C11.3254 15.3415 11.7411 15.7514 12.2579 15.7514ZM12.0559 18.0143C15.3998 18.0143 18.1141 15.3 18.1141 11.9561C18.1141 8.61229 15.3998 5.89801 12.0559 5.89801C8.71208 5.89801 5.9978 8.61229 5.9978 11.9561C5.9978 15.3 8.71208 18.0143 12.0559 18.0143ZM12.0559 17.2065C9.15753 17.2065 6.80555 14.8546 6.80555 11.9561C6.80555 9.05774 9.15753 6.70576 12.0559 6.70576C14.9543 6.70576 17.3063 9.05774 17.3063 11.9561C17.3063 14.8546 14.9543 17.2065 12.0559 17.2065Z" fill="white"/></g><defs><clipPath id="clip0_308_241"><rect width="12.336" height="12.1222" fill="white" transform="translate(6.00244 5.89807)"/></clipPath></defs></svg>
