<svg width="40" height="40" viewBox="0 0 40 40" fill="none" xmlns="http://www.w3.org/2000/svg">
<path fill-rule="evenodd" clip-rule="evenodd" d="M22.32 1.5359L35.64 9.2259C36.2481 9.57696 36.753 10.0819 37.1041 10.69C37.4552 11.298 37.64 11.9878 37.64 12.6899V28.0719C37.64 28.774 37.4552 29.4638 37.1041 30.0718C36.753 30.6799 36.2481 31.1848 35.64 31.5359L22.32 39.2259C21.7119 39.577 21.0221 39.7618 20.32 39.7618C19.6179 39.7618 18.9281 39.577 18.32 39.2259L5 31.5359C4.39194 31.1848 3.887 30.6799 3.53592 30.0718C3.18485 29.4638 3.00002 28.774 3 28.0719V12.6899C3.00002 11.9878 3.18485 11.298 3.53592 10.69C3.887 10.0819 4.39194 9.57696 5 9.2259L18.32 1.5359C18.9281 1.18483 19.6179 1 20.32 1C21.0221 1 21.7119 1.18483 22.32 1.5359Z" fill="url(#paint0_linear_136_27)"/>
<path d="M25.2994 15.5577C24.5368 13.846 22.7861 13.4904 20.6388 13.8399L19.9495 11.2L18.3207 11.6159L18.9979 14.2498C18.5708 14.3583 18.1316 14.4487 17.6985 14.5692L17.0153 11.9534L15.3865 12.3693L16.0759 15.0092C15.7281 15.1057 12.8 15.853 12.8 15.853L13.2515 17.5708C13.2515 17.5708 14.4471 17.2393 14.4349 17.2694C15.0937 17.1007 15.4048 17.4261 15.5573 17.7335L17.4484 24.9662C17.4728 25.1771 17.4362 25.5388 16.9787 25.6533C17.0031 25.6653 15.7952 25.9546 15.7952 25.9546L15.9722 27.9557C15.9722 27.9557 18.8697 27.2204 19.2541 27.13L19.9556 29.8L21.5782 29.3841L20.8828 26.696C21.3342 26.5935 21.7612 26.485 22.1883 26.3766L22.8837 29.0526L24.5124 28.6368L23.817 25.9727C26.3181 25.37 28.0871 23.815 27.7211 21.4282C27.4893 19.9937 25.9033 18.8124 24.5795 18.6798C25.3848 17.9565 25.7996 16.9138 25.2994 15.5577ZM24.5124 21.8501C24.8357 24.2128 21.5172 24.5021 20.4131 24.7854L19.4554 21.2534C20.5656 20.9641 23.9695 19.7647 24.5124 21.8501ZM22.5116 17.0404C22.8532 19.1379 20.0166 19.385 19.0955 19.62L18.2292 16.4136C19.1504 16.1785 21.8161 15.0996 22.5116 17.0404Z" fill="white"/>
<defs>
<linearGradient id="paint0_linear_136_27" x1="-4.68" y1="1.38086" x2="48.5729" y2="30.4144" gradientUnits="userSpaceOnUse">
<stop stop-color="#57F5C9"/>
<stop offset="1" stop-color="#0AC18E"/>
</linearGradient>
</defs>
</svg>
