<svg width="223" height="222" viewBox="0 0 223 222" fill="none" xmlns="http://www.w3.org/2000/svg">
<path d="M28.8278 37.1497L46.3086 47.316C47.9328 48.2606 48.9367 50.012 48.9423 51.9106L49.0016 72.3472C49.0071 74.2458 48.0133 76.003 46.3947 76.957L28.9732 87.2247C27.3545 88.1787 25.3568 88.1845 23.7326 87.2399L6.25178 77.0736C4.62762 76.129 3.62368 74.3776 3.61812 72.479L3.55877 52.0424C3.55331 50.1438 4.54706 48.3866 6.1657 47.4325L23.5872 37.1649C25.2059 36.2109 27.2036 36.2051 28.8278 37.1497Z" fill="url(#paint0_linear_1145_4019)"/>
<path fill-rule="evenodd" clip-rule="evenodd" d="M38.0243 51.8042L34.6127 51.8141L29.2392 57.5002C28.4747 58.3218 27.411 58.7889 26.297 58.7921C25.1831 58.7954 24.1167 58.3345 23.3474 57.5173L17.9397 51.8625L14.5294 51.8724L21.6468 59.3159C22.8613 60.6061 24.545 61.3339 26.3037 61.3288C28.0625 61.3237 29.742 60.5862 30.9489 59.2889L38.0243 51.8042ZM14.5451 72.6293L17.9568 72.6194L23.3747 66.8866C24.1391 66.065 25.2028 65.598 26.3168 65.5947C27.4307 65.5915 28.4971 66.0524 29.2664 66.8695L34.7175 72.5707L38.1278 72.5608L30.9657 65.071C29.7513 63.7807 28.0676 63.053 26.3088 63.0581C24.55 63.0632 22.8705 63.8007 21.6636 65.098L14.5451 72.6293Z" fill="white"/>
<path d="M198.827 37.1492L216.309 47.3163C217.933 48.2609 218.937 50.0124 218.943 51.9111L219.002 72.3465C219.007 74.2452 218.014 76.0025 216.395 76.9565L198.973 87.225C197.354 88.179 195.357 88.1848 193.732 87.2402L176.251 77.0731C174.627 76.1285 173.623 74.377 173.617 72.4783L173.558 52.0429C173.552 50.1442 174.546 48.3869 176.165 47.4329L193.587 37.1644C195.206 36.2104 197.203 36.2046 198.827 37.1492Z" fill="url(#paint1_linear_1145_4019)"/>
<path d="M198.64 51.559C200.435 51.5648 202.155 52.2948 203.428 53.5906C204.701 54.8866 205.424 56.644 205.44 58.4817C205.455 59.8886 205.04 61.2649 204.253 62.4179C203.529 63.5211 202.507 64.3842 201.311 64.9015C200.126 65.29 198.89 65.4847 197.646 65.4785L191.501 65.4963L191.522 72.8374L188.45 72.8463L188.419 62.2962L198.661 62.2664C199.63 62.2527 200.554 61.8488 201.235 61.1421C201.915 60.4357 202.296 59.4832 202.296 58.4909C202.3 58.0003 202.206 57.5139 202.02 57.0618C201.834 56.6096 201.559 56.2013 201.213 55.8618C200.878 55.5114 200.477 55.2338 200.035 55.0459C199.593 54.8579 199.118 54.7634 198.639 54.768L188.398 54.7978L188.388 51.5887L198.64 51.559ZM202.249 66.9334L205.409 72.5349L201.825 72.5453L199.045 67.6139C200.139 67.5421 201.217 67.313 202.249 66.9334Z" fill="white"/>
<path d="M162.259 20.4146L184.378 33.3851C186.359 34.5491 187.684 36.8849 187.691 39.2244L187.766 65.1265C187.773 67.466 186.461 69.8094 184.487 70.9849L162.443 83.9165C160.469 85.0921 157.832 85.0997 155.851 83.9357L133.567 71.1328C131.587 69.9688 130.261 67.633 130.255 65.2935L130.179 39.2243C130.172 36.8848 131.484 34.5414 133.458 33.3659L155.667 20.4338C157.641 19.2583 160.278 19.2506 162.259 20.4146Z" fill="url(#paint2_linear_1145_4019)"/>
<path d="M159.348 58.5617L149.114 52.5754L159.281 35.3334L169.548 52.5161L159.348 58.5617Z" fill="white"/>
<path d="M159.379 69.0896L149.119 54.4136L159.354 60.567L169.553 54.3542L159.379 69.0896Z" fill="white"/>
<path d="M68.2593 20.6736L90.2466 33.4606C92.2894 34.6487 93.5522 36.8517 93.5592 39.2397L93.6338 64.9446C93.6407 67.3327 92.3908 69.543 90.3548 70.7429L68.4422 83.6574C66.4063 84.8574 63.8936 84.8647 61.8507 83.6766L39.8634 70.8895C37.8205 69.7014 36.5578 67.4985 36.5508 65.1104L36.4762 39.4055C36.4693 37.0175 37.7192 34.8072 39.7551 33.6072L61.6678 20.6927C63.7037 19.4927 66.2164 19.4854 68.2593 20.6736Z" fill="url(#paint3_linear_1145_4019)"/>
<path fill-rule="evenodd" clip-rule="evenodd" d="M67.5356 46.0349L67.5443 49.0362L67.5477 49.0395C73.0441 49.2809 77.1786 50.3735 77.1824 51.697C77.1863 53.0205 73.0582 54.1388 67.5633 54.4104L67.5912 64.036L62.692 64.0502L62.6641 54.4263C57.1577 54.185 53.0117 53.0907 53.0078 51.7655C53.004 50.4404 57.1419 49.3221 62.6485 49.0504L62.6397 46.0491L55.8636 46.0688L55.8503 41.49L74.2952 41.4364L74.3085 46.0152L67.5356 46.0349ZM67.5609 53.5933L67.5609 53.5949C72.4133 53.3603 76.0362 52.4891 76.0332 51.4664C76.0302 50.442 72.404 49.5919 67.5487 49.3871L67.5584 52.741C67.4184 52.7548 66.6589 52.8205 65.1494 52.8249C63.8904 52.8285 62.979 52.776 62.6609 52.7552L62.6511 49.3997C57.7872 49.6344 54.1577 50.5022 54.1607 51.5299C54.1637 52.5576 57.7981 53.4077 62.6633 53.6108L62.6633 53.6075C62.9765 53.6233 63.8665 53.6575 65.1304 53.6538C66.7124 53.6492 67.4225 53.6037 67.5609 53.5933Z" fill="white"/>
<path d="M116.64 2.53902L144.328 18.6414C146.9 20.1376 148.49 22.9117 148.499 25.9189L148.593 58.2885C148.602 61.2957 147.028 64.079 144.464 65.5901L116.87 81.853C114.306 83.3641 111.142 83.3733 108.569 81.8771L80.8813 65.7747C78.3088 64.2786 76.7187 61.5044 76.7099 58.4972L76.6159 26.1277C76.6072 23.1205 78.1812 20.3371 80.745 18.8261L108.339 2.56312C110.903 1.05202 114.067 1.04283 116.64 2.53902Z" fill="url(#paint4_linear_1145_4019)"/>
<path fill-rule="evenodd" clip-rule="evenodd" d="M121.355 55.6866C118.983 56.5638 116.774 56.2727 115.73 56.135L115.646 56.124C115.15 56.0602 114.311 55.9069 113.416 55.7222L111.948 61.3389L108.538 60.4229L109.981 54.8968L107.385 54.1993L105.942 59.7255L102.532 58.8094L103.975 53.2833L97.2671 51.4804L99.0526 47.5147L101.092 48.0644C101.777 48.2476 102.08 48.2593 102.439 48.0626C102.797 47.8637 102.97 47.4613 103.059 47.1222L106.794 32.8141C107.03 31.9169 107.021 31.656 106.735 31.0865C106.449 30.515 105.508 30.1978 104.97 30.0542L102.999 29.5233L103.937 25.9347L110.645 27.7355L112.092 22.1925L115.502 23.1086L114.055 28.6515L116.651 29.349L118.1 23.806L121.51 24.722L120.045 30.3324C122.546 31.1753 124.311 32.174 125.637 33.8557C127.356 36.0288 126.519 38.7775 126.297 39.4284C126.077 40.0772 125.458 41.2764 124.669 41.9458C123.88 42.6172 122.263 43.0639 122.263 43.0639C122.263 43.0639 123.826 43.8653 124.759 45.0663C125.688 46.2673 126.141 48.0653 125.492 50.3462C124.847 52.6293 123.789 54.783 121.355 55.6866ZM114.248 43.7121C112.981 43.3041 111.695 42.9588 110.394 42.6775L108.456 50.0948C108.456 50.0948 110.706 50.7511 112.251 51.0454C113.793 51.3377 115.456 51.3707 116.351 51.143C117.243 50.9152 118.362 50.489 118.806 48.7936C119.249 47.0962 118.321 46.0867 117.765 45.5917C117.214 45.0966 115.908 44.2797 114.248 43.7142L114.248 43.7121ZM117.878 40.0715C116.783 40.3483 115.384 40.2829 114.128 39.9982C112.873 39.7115 111.291 39.2363 111.291 39.2363L113.035 32.5603C113.035 32.5603 114.144 32.757 115.207 33.059C116.271 33.3611 117.201 33.6467 118.49 34.4594C119.779 35.2722 120.329 36.5627 120.031 37.8304C119.734 39.0981 118.973 39.7948 117.878 40.0715Z" fill="white"/>
<path opacity="0.25" fill-rule="evenodd" clip-rule="evenodd" d="M143.272 163.588L76.9643 163.49C73.6356 163.485 70.9403 160.784 70.9452 157.459C70.9501 154.133 73.6534 151.44 76.9821 151.445L81.8045 151.452L143.29 151.543" fill="url(#paint5_linear_1145_4019)"/>
<path opacity="0.5" fill-rule="evenodd" clip-rule="evenodd" d="M70.9453 157.459C70.9405 160.697 73.4957 163.343 76.703 163.484L76.9644 163.49L148.095 163.595L148.051 192.503L138.407 192.489C138.409 191.159 137.331 190.078 136 190.076C134.668 190.075 133.587 191.151 133.585 192.482L70.8936 192.389L70.9453 157.459Z" fill="url(#paint6_linear_1145_4019)"/>
<path opacity="0.2" fill-rule="evenodd" clip-rule="evenodd" d="M135.992 194.895C137.324 194.897 138.405 193.82 138.407 192.489L148.05 192.503L148.009 221.411L80.4951 221.312C75.2692 221.304 71.0197 217.144 70.8687 211.961L70.8645 211.661L70.8931 192.389L133.584 192.482C133.582 193.812 134.66 194.893 135.992 194.895Z" fill="url(#paint7_linear_1145_4019)"/>
<path opacity="0.4" d="M23.0415 193.07L124.112 193.07" stroke="white" stroke-width="0.899427" stroke-dasharray="0.9 3.6"/>
<path opacity="0.4" d="M158.191 193.121L199.211 193.121" stroke="white" stroke-width="0.899427" stroke-dasharray="0.9 3.6"/>
<path opacity="0.25" fill-rule="evenodd" clip-rule="evenodd" d="M152.886 185.283L152.864 199.737L135.986 199.713C132.081 199.707 128.904 196.612 128.767 192.746L128.763 192.475C128.769 188.483 132.012 185.253 136.007 185.258L152.886 185.283ZM136 190.077C134.668 190.075 133.587 191.151 133.585 192.482C133.583 193.812 134.661 194.893 135.993 194.895C137.324 194.896 138.406 193.82 138.408 192.489C138.41 191.159 137.332 190.078 136 190.077Z" fill="url(#paint8_linear_1145_4019)"/>
<path d="M82.6695 147.876C81.3386 151.64 80.2773 156.854 80.2773 163.518L106.184 163.518L107.225 145.237L86.6006 145.237C84.8588 145.237 83.2501 146.234 82.6695 147.876Z" fill="url(#paint9_linear_1145_4019)"/>
<path d="M82.6695 147.876C81.3386 151.64 80.2773 156.854 80.2773 163.518L106.184 163.518L107.225 145.237L86.6006 145.237C84.8588 145.237 83.2501 146.234 82.6695 147.876Z" fill="url(#paint10_linear_1145_4019)"/>
<path opacity="0.2" d="M84.1204 163.39C84.0715 160.882 84.3546 155.357 85.7337 151.068C86.0952 149.944 87.1819 149.255 88.363 149.255L102.703 149.255" stroke="white" stroke-width="1.79885"/>
<path d="M134.468 163.518L95.9053 163.518C95.9053 157.479 97.2147 152.044 100.417 144.383C101.237 142.421 103.178 141.174 105.305 141.174L138.016 141.174C139.326 141.174 140.197 142.532 139.678 143.735C136.282 151.603 135.033 156.993 134.468 163.518Z" fill="url(#paint11_linear_1145_4019)"/>
<path opacity="0.2" d="M100.626 163.558C101.431 157.831 102.55 151.969 104.671 147.1C105.121 146.067 106.163 145.441 107.29 145.441L132.105 145.441C132.904 145.441 133.407 146.347 133.046 147.06C131.515 150.089 129.534 155.752 129.258 163.558" stroke="white" stroke-width="1.79885"/>
<path opacity="0.2" d="M115.544 159.213C111.304 159.213 107.867 161.141 107.867 163.518H123.222C123.222 161.141 119.784 159.213 115.544 159.213Z" fill="white"/>
<circle cx="92.7086" cy="206.658" r="6.29599" fill="url(#paint12_linear_1145_4019)"/>
<circle cx="84.6104" cy="206.658" r="6.29599" fill="url(#paint13_linear_1145_4019)"/>
<circle cx="88.6593" cy="206.66" r="6.29753" fill="url(#paint14_linear_1145_4019)"/>
<defs>
<linearGradient id="paint0_linear_1145_4019" x1="-34.6923" y1="70.1546" x2="32.8543" y2="135.407" gradientUnits="userSpaceOnUse">
<stop stop-color="#11AAE2"/>
<stop offset="1" stop-color="#016197"/>
</linearGradient>
<linearGradient id="paint1_linear_1145_4019" x1="218.895" y1="49.2709" x2="169.639" y2="64.4618" gradientUnits="userSpaceOnUse">
<stop stop-color="#C200FB"/>
<stop offset="0.489758" stop-color="#3773FE"/>
<stop offset="0.498757" stop-color="#3772FF"/>
<stop offset="1" stop-color="#5AC4BE"/>
</linearGradient>
<linearGradient id="paint2_linear_1145_4019" x1="79.2038" y1="17.0284" x2="137.405" y2="142.376" gradientUnits="userSpaceOnUse">
<stop stop-color="#171C30"/>
<stop offset="1" stop-color="#5A63B8"/>
</linearGradient>
<linearGradient id="paint3_linear_1145_4019" x1="0.516245" y1="61.3397" x2="80.4387" y2="116.693" gradientUnits="userSpaceOnUse">
<stop stop-color="#53AE94"/>
<stop offset="1" stop-color="#2E9175"/>
</linearGradient>
<linearGradient id="paint4_linear_1145_4019" x1="158.853" y1="22.5818" x2="93.1964" y2="-7.37046" gradientUnits="userSpaceOnUse">
<stop stop-color="#FF9400"/>
<stop offset="1" stop-color="#FFBB21"/>
</linearGradient>
<linearGradient id="paint5_linear_1145_4019" x1="70.9454" y1="157.291" x2="142.805" y2="169.271" gradientUnits="userSpaceOnUse">
<stop stop-color="white" stop-opacity="0.1"/>
<stop offset="1" stop-color="white" stop-opacity="0.5"/>
</linearGradient>
<linearGradient id="paint6_linear_1145_4019" x1="149.616" y1="178.698" x2="83.2771" y2="148.788" gradientUnits="userSpaceOnUse">
<stop stop-color="white" stop-opacity="0.1"/>
<stop offset="1" stop-color="white" stop-opacity="0.5"/>
</linearGradient>
<linearGradient id="paint7_linear_1145_4019" x1="149.57" y1="209.033" x2="80.9957" y2="183.431" gradientUnits="userSpaceOnUse">
<stop stop-color="white" stop-opacity="0.1"/>
<stop offset="1" stop-color="white" stop-opacity="0.5"/>
</linearGradient>
<linearGradient id="paint8_linear_1145_4019" x1="153.353" y1="195.165" x2="133.438" y2="183.282" gradientUnits="userSpaceOnUse">
<stop stop-color="white" stop-opacity="0.5"/>
<stop offset="1" stop-color="white" stop-opacity="0.1"/>
</linearGradient>
<linearGradient id="paint9_linear_1145_4019" x1="64.0217" y1="130.801" x2="100.686" y2="186.963" gradientUnits="userSpaceOnUse">
<stop stop-color="#9F69B4"/>
<stop offset="1" stop-color="#440EE5"/>
</linearGradient>
<linearGradient id="paint10_linear_1145_4019" x1="86.8595" y1="159.438" x2="141.184" y2="152.256" gradientUnits="userSpaceOnUse">
<stop stop-color="#26BC8F"/>
<stop offset="1" stop-color="#0DF4AF"/>
</linearGradient>
<linearGradient id="paint11_linear_1145_4019" x1="118.362" y1="127.958" x2="113.4" y2="178.777" gradientUnits="userSpaceOnUse">
<stop stop-color="#67CFB0"/>
<stop offset="1" stop-color="#11DDA0"/>
</linearGradient>
<linearGradient id="paint12_linear_1145_4019" x1="89.5606" y1="211.83" x2="88.7144" y2="198.136" gradientUnits="userSpaceOnUse">
<stop stop-color="#5C26FF"/>
<stop offset="1" stop-color="#8C66FF"/>
</linearGradient>
<linearGradient id="paint13_linear_1145_4019" x1="79.4387" y1="214.75" x2="80.7879" y2="200.359" gradientUnits="userSpaceOnUse">
<stop stop-color="#556FF2"/>
<stop offset="1" stop-color="#00BFFF"/>
</linearGradient>
<linearGradient id="paint14_linear_1145_4019" x1="85.7364" y1="212.957" x2="92.1312" y2="200.362" gradientUnits="userSpaceOnUse">
<stop stop-color="#FF9F19"/>
<stop offset="1" stop-color="#FFCC33"/>
</linearGradient>
</defs>
</svg>
