<svg width="1170" height="120" fill="none" xmlns="http://www.w3.org/2000/svg"><g clip-path="url(#clip0_1201_24356)"><path d="M1130 0H40C17.909 0 0 17.909 0 40s17.909 40 40 40h1090c22.09 0 40-17.909 40-40s-17.91-40-40-40z" fill="#0C0E0F"/><g opacity=".4"><mask id="a" style="mask-type:luminance" maskUnits="userSpaceOnUse" x="1123" y="30" width="19" height="19"><path fill-rule="evenodd" clip-rule="evenodd" d="M1127 31h-3v3h3v-3zm-3-1h-1v5h5v-5h-4zm10 1h-3v3h3v-3zm-3-1h-1v5h5v-5h-4zm7 1h3v3h-3v-3zm-1-1h5v5h-5v-5zm-10 8h-3v3h3v-3zm-3-1h-1v5h5v-5h-4zm7 1h3v3h-3v-3zm-1-1h5v5h-5v-5zm11 1h-3v3h3v-3zm-3-1h-1v5h5v-5h-4zm-14 8h3v3h-3v-3zm-1-1h5v5h-5v-5zm11 1h-3v3h3v-3zm-3-1h-1v5h5v-5h-4zm7 1h3v3h-3v-3zm-1-1h5v5h-5v-5z" fill="#fff"/></mask><g mask="url(#a)"><path d="M1124 31v-1h-1v1h1zm3 0h1v-1h-1v1zm-3 3h-1v1h1v-1zm3 0v1h1v-1h-1zm-4-4v-1h-1v1h1zm0 5h-1v1h1v-1zm5 0v1h1v-1h-1zm0-5h1v-1h-1v1zm3 1v-1h-1v1h1zm3 0h1v-1h-1v1zm-3 3h-1v1h1v-1zm3 0v1h1v-1h-1zm-4-4v-1h-1v1h1zm0 5h-1v1h1v-1zm5 0v1h1v-1h-1zm0-5h1v-1h-1v1zm6 1h1v-1h-1v1zm-3 0v-1h-1v1h1zm3 3v1h1v-1h-1zm-3 0h-1v1h1v-1zm-1-4v-1h-1v1h1zm5 0h1v-1h-1v1zm0 5v1h1v-1h-1zm-5 0h-1v1h1v-1zm-13 3v-1h-1v1h1zm3 0h1v-1h-1v1zm-3 3h-1v1h1v-1zm3 0v1h1v-1h-1zm-4-4v-1h-1v1h1zm0 5h-1v1h1v-1zm5 0v1h1v-1h-1zm0-5h1v-1h-1v1zm6 1h1v-1h-1v1zm-3 0v-1h-1v1h1zm3 3v1h1v-1h-1zm-3 0h-1v1h1v-1zm-1-4v-1h-1v1h1zm5 0h1v-1h-1v1zm0 5v1h1v-1h-1zm-5 0h-1v1h1v-1zm8-4v-1h-1v1h1zm3 0h1v-1h-1v1zm-3 3h-1v1h1v-1zm3 0v1h1v-1h-1zm-4-4v-1h-1v1h1zm0 5h-1v1h1v-1zm5 0v1h1v-1h-1zm0-5h1v-1h-1v1zm-15 8h1v-1h-1v1zm-3 0v-1h-1v1h1zm3 3v1h1v-1h-1zm-3 0h-1v1h1v-1zm-1-4v-1h-1v1h1zm5 0h1v-1h-1v1zm0 5v1h1v-1h-1zm-5 0h-1v1h1v-1zm8-4v-1h-1v1h1zm3 0h1v-1h-1v1zm-3 3h-1v1h1v-1zm3 0v1h1v-1h-1zm-4-4v-1h-1v1h1zm0 5h-1v1h1v-1zm5 0v1h1v-1h-1zm0-5h1v-1h-1v1zm6 1h1v-1h-1v1zm-3 0v-1h-1v1h1zm3 3v1h1v-1h-1zm-3 0h-1v1h1v-1zm-1-4v-1h-1v1h1zm5 0h1v-1h-1v1zm0 5v1h1v-1h-1zm-5 0h-1v1h1v-1zm-13-17h3v-2h-3v2zm1 2v-3h-2v3h2zm2-1h-3v2h3v-2zm-1-2v3h2v-3h-2zm-3 0h1v-2h-1v2zm1 0v-1h-2v1h2zm0 3v-3h-2v3h2zm0 1v-1h-2v1h2zm0-1h-1v2h1v-2zm3 0h-3v2h3v-2zm1 0h-1v2h1v-2zm-1 0v1h2v-1h-2zm0-3v3h2v-3h-2zm0-1v1h2v-1h-2zm0 1h1v-2h-1v2zm-3 0h3v-2h-3v2zm7 1h3v-2h-3v2zm1 2v-3h-2v3h2zm2-1h-3v2h3v-2zm-1-2v3h2v-3h-2zm-3 0h1v-2h-1v2zm1 0v-1h-2v1h2zm0 3v-3h-2v3h2zm0 1v-1h-2v1h2zm0-1h-1v2h1v-2zm3 0h-3v2h3v-2zm1 0h-1v2h1v-2zm-1 0v1h2v-1h-2zm0-3v3h2v-3h-2zm0-1v1h2v-1h-2zm0 1h1v-2h-1v2zm-3 0h3v-2h-3v2zm10-1h-3v2h3v-2zm1 4v-3h-2v3h2zm-4 1h3v-2h-3v2zm-1-4v3h2v-3h-2zm1-2h-1v2h1v-2zm3 0h-3v2h3v-2zm1 0h-1v2h1v-2zm1 2v-1h-2v1h2zm0 3v-3h-2v3h2zm0 1v-1h-2v1h2zm-2 1h1v-2h-1v2zm-3 0h3v-2h-3v2zm-1 0h1v-2h-1v2zm-1-2v1h2v-1h-2zm0-3v3h2v-3h-2zm0-1v1h2v-1h-2zm-12 9h3v-2h-3v2zm1 2v-3h-2v3h2zm2-1h-3v2h3v-2zm-1-2v3h2v-3h-2zm-3 0h1v-2h-1v2zm1 0v-1h-2v1h2zm0 3v-3h-2v3h2zm0 1v-1h-2v1h2zm0-1h-1v2h1v-2zm3 0h-3v2h3v-2zm1 0h-1v2h1v-2zm-1 0v1h2v-1h-2zm0-3v3h2v-3h-2zm0-1v1h2v-1h-2zm0 1h1v-2h-1v2zm-3 0h3v-2h-3v2zm10-1h-3v2h3v-2zm1 4v-3h-2v3h2zm-4 1h3v-2h-3v2zm-1-4v3h2v-3h-2zm1-2h-1v2h1v-2zm3 0h-3v2h3v-2zm1 0h-1v2h1v-2zm1 2v-1h-2v1h2zm0 3v-3h-2v3h2zm0 1v-1h-2v1h2zm-2 1h1v-2h-1v2zm-3 0h3v-2h-3v2zm-1 0h1v-2h-1v2zm-1-2v1h2v-1h-2zm0-3v3h2v-3h-2zm0-1v1h2v-1h-2zm9 2h3v-2h-3v2zm1 2v-3h-2v3h2zm2-1h-3v2h3v-2zm-1-2v3h2v-3h-2zm-3 0h1v-2h-1v2zm1 0v-1h-2v1h2zm0 3v-3h-2v3h2zm0 1v-1h-2v1h2zm0-1h-1v2h1v-2zm3 0h-3v2h3v-2zm1 0h-1v2h1v-2zm-1 0v1h2v-1h-2zm0-3v3h2v-3h-2zm0-1v1h2v-1h-2zm0 1h1v-2h-1v2zm-3 0h3v-2h-3v2zm-11 6h-3v2h3v-2zm1 4v-3h-2v3h2zm-4 1h3v-2h-3v2zm-1-4v3h2v-3h-2zm1-2h-1v2h1v-2zm3 0h-3v2h3v-2zm1 0h-1v2h1v-2zm1 2v-1h-2v1h2zm0 3v-3h-2v3h2zm0 1v-1h-2v1h2zm-2 1h1v-2h-1v2zm-3 0h3v-2h-3v2zm-1 0h1v-2h-1v2zm-1-2v1h2v-1h-2zm0-3v3h2v-3h-2zm0-1v1h2v-1h-2zm9 2h3v-2h-3v2zm1 2v-3h-2v3h2zm2-1h-3v2h3v-2zm-1-2v3h2v-3h-2zm-3 0h1v-2h-1v2zm1 0v-1h-2v1h2zm0 3v-3h-2v3h2zm0 1v-1h-2v1h2zm0-1h-1v2h1v-2zm3 0h-3v2h3v-2zm1 0h-1v2h1v-2zm-1 0v1h2v-1h-2zm0-3v3h2v-3h-2zm0-1v1h2v-1h-2zm0 1h1v-2h-1v2zm-3 0h3v-2h-3v2zm10-1h-3v2h3v-2zm1 4v-3h-2v3h2zm-4 1h3v-2h-3v2zm-1-4v3h2v-3h-2zm1-2h-1v2h1v-2zm3 0h-3v2h3v-2zm1 0h-1v2h1v-2zm1 2v-1h-2v1h2zm0 3v-3h-2v3h2zm0 1v-1h-2v1h2zm-2 1h1v-2h-1v2zm-3 0h3v-2h-3v2zm-1 0h1v-2h-1v2zm-1-2v1h2v-1h-2zm0-3v3h2v-3h-2zm0-1v1h2v-1h-2z" fill="#fff"/></g></g><path fill-rule="evenodd" clip-rule="evenodd" d="M1093.34 29.343a.509.509 0 00-.48-.343h-2.72l-.1.008-.08.025a.505.505 0 00-.32.4l-.36 2.626-.39.129-.36.138c-.24.098-.47.208-.69.328l-.04.018-2.1-1.605-.08-.05a.501.501 0 00-.58.094l-1.93 1.928-.06.071-.04.078a.492.492 0 00.06.507l1.6 2.11-.19.369-.15.351c-.1.236-.19.476-.26.72l-.01.038-2.63.358-.09.02a.5.5 0 00-.34.475v2.728l.01.091.02.087c.07.166.22.292.4.317l2.63.358.13.395.14.358c.09.237.2.467.32.691l.02.033-1.6 2.11-.05.079c-.09.19-.06.423.09.578l1.93 1.928.07.059.08.044c.16.073.36.055.51-.058l2.11-1.605.37.189.35.157c.23.098.47.184.72.258l.03.01.36 2.624.02.09a.51.51 0 00.48.343h2.72l.1-.008.08-.025a.505.505 0 00.32-.4l.36-2.627.39-.128.36-.138c.24-.098.47-.208.69-.328l.03-.019 2.11 1.604.08.049c.19.095.43.061.58-.094l1.93-1.928.06-.07.04-.079a.492.492 0 00-.06-.507l-1.6-2.11.19-.368.15-.352c.1-.236.19-.476.26-.72l.01-.037 2.63-.356.09-.02a.5.5 0 00.34-.475v-2.728l-.01-.091-.02-.087a.519.519 0 00-.4-.317l-2.63-.359-.13-.394-.14-.358c-.09-.237-.2-.467-.32-.691l-.02-.034 1.6-2.11.05-.078a.516.516 0 00-.09-.578l-1.93-1.928-.07-.059-.08-.044a.506.506 0 00-.51.059l-2.11 1.603-.36-.188-.36-.157a7.253 7.253 0 00-.71-.258l-.04-.012-.36-2.623-.02-.09zm-2.77.657h1.86l.34 2.518.02.084c.05.163.18.29.35.333a6.75 6.75 0 011.55.597l.3.17.09.04.09.022c.13.016.26-.017.37-.098l2.02-1.54 1.31 1.311-1.54 2.026-.05.073a.526.526 0 00.02.488c.29.474.51.981.67 1.511l.1.332.02.08.05.071c.07.114.2.192.34.211l2.52.343v1.855l-2.52.341-.08.02a.53.53 0 00-.34.354 6.565 6.565 0 01-.59 1.543l-.17.3-.04.09-.02.094c-.02.127.01.26.09.365l1.54 2.025-1.31 1.311-2.02-1.539-.08-.046a.486.486 0 00-.48.016 6.88 6.88 0 01-1.52.673l-.33.091-.08.03-.07.041a.513.513 0 00-.21.344l-.34 2.52h-1.86l-.34-2.517-.02-.084a.49.49 0 00-.35-.334 6.75 6.75 0 01-1.55-.597l-.29-.17-.09-.04-.1-.022a.476.476 0 00-.36.098l-2.03 1.538-1.31-1.31 1.54-2.025.05-.073a.526.526 0 00-.02-.488 6.475 6.475 0 01-.67-1.511l-.1-.332-.02-.08-.05-.071a.478.478 0 00-.34-.211l-2.52-.344v-1.855l2.52-.343.08-.019a.53.53 0 00.34-.355c.13-.537.33-1.055.59-1.543l.17-.3.04-.09.02-.094a.481.481 0 00-.09-.365l-1.54-2.025 1.31-1.311 2.02 1.542.08.046c.15.079.33.075.48-.016a6.88 6.88 0 011.52-.673l.33-.091.08-.03.07-.041a.513.513 0 00.21-.344l.34-2.52zm.93 6c1.93 0 3.5 1.567 3.5 3.5s-1.57 3.5-3.5 3.5-3.5-1.567-3.5-3.5 1.57-3.5 3.5-3.5zm-2.5 3.5a2.5 2.5 0 115 0 2.5 2.5 0 01-5 0z" fill="#fff" opacity=".4"/><g opacity=".4"><path d="M1050.5 49.5c5.52 0 10-4.477 10-10s-4.48-10-10-10-10 4.477-10 10 4.48 10 10 10z" stroke="#fff"/><path fill-rule="evenodd" clip-rule="evenodd" d="M1059.46 34.013c-.02.04-.04.077-.06.113l-.06.069-3.61 3.606a5.467 5.467 0 010 3.394l3.61 3.606c.05.054.09.116.12.182a10.95 10.95 0 01-1.53 1.938l-.01.004c-.58.581-1.23 1.095-1.93 1.528a.648.648 0 01-.12-.058l-.07-.058-3.6-3.606c-1.1.356-2.3.356-3.4 0l-3.6 3.606a.556.556 0 01-.19.116c-.7-.433-1.35-.947-1.93-1.53l-.01-.001a10.95 10.95 0 01-1.53-1.939c.02-.039.04-.077.06-.112l.06-.07 3.61-3.605a5.474 5.474 0 010-3.396l-3.61-3.605a.667.667 0 01-.12-.182c.44-.706.95-1.357 1.54-1.94.58-.582 1.23-1.097 1.93-1.53.04.014.08.034.12.058l.07.058 3.6 3.606c1.1-.356 2.3-.356 3.4 0l3.6-3.606a.557.557 0 01.19-.116c.7.433 1.35.947 1.93 1.529l.01.003a10.95 10.95 0 011.53 1.938zm-4.16 8.167c-.24.432-.54.84-.91 1.207-.37.368-.77.672-1.21.914l2.98 2.975 2.12-2.121-2.98-2.975zm-7.98.5a4.495 4.495 0 010-6.364 4.495 4.495 0 016.36 0 4.495 4.495 0 010 6.364 4.495 4.495 0 01-6.36 0zm5.86-7.985c.44.242.84.547 1.21.914.37.368.67.775.91 1.207l2.98-2.974-2.12-2.121-2.98 2.974zm-7.48 7.486c.24.432.54.839.91 1.206.37.368.78.673 1.21.914l-2.98 2.975-2.12-2.121 2.98-2.974zm-.86-10.461l-2.12 2.121 2.98 2.974c.24-.432.54-.838.91-1.206s.78-.672 1.21-.914l-2.98-2.975z" fill="#fff"/></g><g opacity=".4" fill="#fff"><path d="M1010 30c5.52 0 10 4.477 10 10s-4.48 10-10 10a9.999 9.999 0 01-9.23-6.15.493.493 0 01.27-.654c.25-.106.54.014.65.269A9 9 0 001010 49a9 9 0 10-8.27-12.551.505.505 0 01-.66.262.501.501 0 01-.26-.657A9.987 9.987 0 011010 30z"/><path d="M1009.5 35.5c.25 0 .45.177.49.41l.01.09v4.709l3.25 1.857a.5.5 0 01.22.6l-.04.082a.496.496 0 01-.6.224l-.08-.038-3.5-2a.478.478 0 01-.24-.346L1009 41v-5c0-.276.22-.5.5-.5zM999.285 32.263a.5.5 0 01.406-.58.51.51 0 01.559.319l.02.087.78 4.432 4.43-.782c.24-.042.48.097.56.319l.02.087a.496.496 0 01-.32.556l-.08.023-4.93.868a.493.493 0 01-.55-.318l-.03-.087-.865-4.924z"/></g><path opacity=".08" d="M964.5 26h-27c-8.008 0-14.5 6.492-14.5 14.5S929.492 55 937.5 55h27c8.008 0 14.5-6.492 14.5-14.5S972.508 26 964.5 26z" fill="#fff"/><path d="M937.5 55c8.008 0 14.5-6.492 14.5-14.5S945.508 26 937.5 26 923 32.492 923 40.5 929.492 55 937.5 55z" fill="url(#paint0_linear_1201_24356)"/><g opacity=".4"><path d="M931.5 38a.5.5 0 01.5-.5h11a.5.5 0 01.5.5v8a1.5 1.5 0 01-1.5 1.5h-9a1.5 1.5 0 01-1.5-1.5v-8z" stroke="#fff"/><path d="M938 42.5a.5.5 0 00-1 0v2a.5.5 0 001 0v-2z" fill="#fff"/><path d="M937.5 42.5a1 1 0 100-2 1 1 0 000 2z" stroke="#fff"/><path fill-rule="evenodd" clip-rule="evenodd" d="M942 37v1h-9v-2.5a4.5 4.5 0 018.343-2.343l-.734.734a3.501 3.501 0 00-2.917-1.886L937.5 32a3.5 3.5 0 00-3.495 3.308L934 35.5V37h8z" fill="#fff"/></g><path d="M61.809 32.935L48.182 24v4.995l8.741 5.681-1.028 3.254h-7.713v4.14h7.713l1.028 3.254-8.741 5.68V56l13.627-8.906-2.229-7.08 2.229-7.08z" fill="url(#paint1_linear_1201_24356)"/><path d="M36.325 42.07h7.685v-4.14h-7.713l-1-3.254 8.713-5.68V24l-13.627 8.935 2.228 7.08-2.228 7.079L44.038 56v-4.995l-8.741-5.681 1.028-3.254z" fill="url(#paint2_linear_1201_24356)"/><mask id="b" style="mask-type:alpha" maskUnits="userSpaceOnUse" x="30" y="24" width="32" height="32"><path d="M61.809 32.935L48.182 24v4.995l8.741 5.681-1.028 3.254h-7.713v4.14h7.713l1.028 3.254-8.741 5.68V56l13.627-8.906-2.229-7.08 2.229-7.08z" fill="url(#paint3_linear_1201_24356)"/><path d="M36.325 42.07h7.685v-4.14h-7.713l-1-3.254 8.713-5.68V24l-13.627 8.935 2.228 7.08-2.228 7.079L44.038 56v-4.995l-8.741-5.681 1.028-3.254z" fill="url(#paint4_linear_1201_24356)"/></mask><g mask="url(#b)"><path d="M61.6 24H30.4v32h31.2V24z" fill="url(#paint5_linear_1201_24356)"/></g><path d="M78.364 45.704c0-.533-.146-.981-.44-1.345-.292-.369-.796-.709-1.51-1.02-1.05-.38-1.814-.875-2.295-1.484-.48-.616-.72-1.395-.72-2.338 0-.961.23-1.744.694-2.347.468-.61 1.104-.979 1.907-1.108V34.13h1.24v1.942c.82.147 1.452.566 1.898 1.257.45.686.676 1.623.676 2.813h-1.538c0-.815-.149-1.468-.448-1.96-.299-.492-.709-.739-1.23-.739-.522 0-.929.18-1.222.536-.287.358-.43.862-.43 1.512 0 .592.155 1.067.465 1.424.317.352.83.677 1.538.976 1.06.398 1.82.896 2.277 1.494.463.592.694 1.36.694 2.303 0 .96-.246 1.746-.738 2.355-.493.61-1.199.976-2.118 1.099v1.687h-1.222v-1.687c-.926-.135-1.635-.54-2.127-1.213-.492-.674-.738-1.573-.738-2.698h1.546c0 .814.165 1.44.493 1.88.328.44.79.66 1.388.66.61 0 1.087-.182 1.433-.545.352-.37.527-.876.527-1.52z" fill="#fff" fill-opacity=".6"/><path d="M90.895 49h-8.744v-1.429l4.458-5.908c.674-.91 1.139-1.654 1.397-2.234a4.468 4.468 0 00.397-1.859c0-.83-.193-1.504-.58-2.02-.386-.515-.895-.773-1.525-.773-.795 0-1.411.276-1.848.828-.43.544-.644 1.332-.644 2.363h-1.902c0-1.44.394-2.603 1.182-3.491.788-.888 1.858-1.332 3.212-1.332 1.246 0 2.227.383 2.943 1.149.716.76 1.074 1.772 1.074 3.04 0 1.547-.805 3.377-2.417 5.49l-3.48 4.554h6.477V49zm10.753-14.523L96.267 49h-1.988l5.371-14.008H92.68V33.36h8.969v1.118zm2.428 17.638l-1.128-.773c.673-.938 1.024-1.905 1.053-2.9v-1.794h1.944v1.557c0 .723-.179 1.447-.537 2.17-.351.723-.795 1.303-1.332 1.74zm12.493-9.786c0 2.306-.336 4.032-1.009 5.178-.674 1.139-1.73 1.708-3.169 1.708-1.397 0-2.439-.548-3.126-1.644-.688-1.095-1.046-2.742-1.075-4.941v-2.686c0-2.284.337-3.989 1.01-5.113.681-1.124 1.737-1.687 3.169-1.687 1.411 0 2.453.534 3.126 1.601.68 1.067 1.039 2.682 1.074 4.845v2.74zm-1.901-2.718c0-1.654-.183-2.871-.548-3.652-.365-.788-.949-1.182-1.751-1.182-.78 0-1.353.387-1.719 1.16-.365.767-.555 1.927-.569 3.481v3.223c0 1.647.19 2.886.569 3.716.38.824.96 1.236 1.741 1.236.773 0 1.342-.39 1.708-1.171.365-.78.555-1.973.569-3.577V39.61zm12.461-2.17c0 .781-.176 1.476-.526 2.084a3.774 3.774 0 01-1.397 1.43 3.952 3.952 0 011.633 1.546c.394.666.591 1.425.591 2.277 0 1.347-.383 2.425-1.15 3.234-.759.802-1.769 1.203-3.029 1.203s-2.274-.401-3.04-1.203c-.759-.81-1.139-1.887-1.139-3.234 0-.86.194-1.625.58-2.298a3.845 3.845 0 011.601-1.537 3.718 3.718 0 01-1.386-1.418c-.336-.608-.505-1.303-.505-2.084 0-1.317.355-2.363 1.064-3.136.716-.774 1.658-1.16 2.825-1.16 1.16 0 2.095.383 2.804 1.149.716.766 1.074 1.815 1.074 3.147zm-1.601 7.294c0-.895-.211-1.611-.633-2.148-.423-.544-.978-.817-1.666-.817-.701 0-1.256.273-1.665.817-.401.544-.601 1.26-.601 2.148 0 .903.197 1.605.591 2.106.401.501.967.752 1.697.752.73 0 1.293-.25 1.687-.752.393-.502.59-1.203.59-2.106zm-.29-7.261c0-.795-.186-1.443-.558-1.945-.373-.501-.849-.752-1.429-.752-.609 0-1.092.247-1.45.742-.358.494-.537 1.145-.537 1.955 0 .816.182 1.464.548 1.944.365.48.845.72 1.439.72.609 0 1.092-.244 1.45-.73.358-.488.537-1.132.537-1.934zm11.913 6.273h1.741v1.622h-1.741V49h-1.901v-3.63h-5.908v-1.172l5.811-10.839h1.998v10.388zm-5.704 0h3.803v-7.434l-3.803 7.434zm9.668 4.211c0-.344.1-.63.301-.86.208-.228.516-.343.924-.343.408 0 .716.114.924.344.215.229.322.515.322.859 0 .33-.107.605-.322.827-.208.222-.516.333-.924.333-.408 0-.716-.11-.924-.333a1.186 1.186 0 01-.301-.827zm6.284-6.8l.677-7.799h6.8v1.837h-5.199l-.365 4.265c.644-.451 1.339-.677 2.084-.677 1.217 0 2.173.473 2.868 1.418.694.946 1.042 2.217 1.042 3.814 0 1.618-.38 2.89-1.139 3.813-.752.924-1.787 1.386-3.105 1.386-1.174 0-2.13-.383-2.868-1.15-.737-.766-1.16-1.826-1.267-3.18h1.783c.107.896.362 1.573.763 2.031.408.451.938.677 1.589.677.738 0 1.315-.319 1.73-.956.415-.645.623-1.511.623-2.6 0-1.024-.226-1.858-.677-2.503-.444-.644-1.045-.967-1.804-.967-.631 0-1.135.165-1.515.495l-.505.504-1.515-.408zm16.35 1.16c-.759.967-1.647 1.45-2.664 1.45-1.139 0-2.045-.48-2.718-1.439-.673-.96-1.01-2.216-1.01-3.77 0-1.633.366-2.944 1.096-3.932.738-.988 1.74-1.483 3.008-1.483 1.318 0 2.345.573 3.083 1.72.745 1.138 1.117 2.717 1.117 4.737v.59c0 1.733-.132 3.137-.397 4.211-.258 1.075-.641 1.941-1.15 2.6a4.867 4.867 0 01-1.944 1.504c-.788.336-1.773.505-2.954.505v-1.676h.333c1.346-.029 2.367-.437 3.061-1.225.702-.795 1.082-2.059 1.139-3.792zm-2.342-.193c.459 0 .906-.19 1.343-.57.437-.386.777-.89 1.021-1.514v-.838c0-1.296-.226-2.352-.677-3.169-.451-.823-.996-1.235-1.633-1.235-.688 0-1.235.34-1.644 1.02-.401.673-.601 1.55-.601 2.632s.197 1.966.591 2.654c.394.68.927 1.02 1.6 1.02z" fill="#fff"/><path fill-rule="evenodd" clip-rule="evenodd" d="M380 51h-1v50h195.5v19h1v-19H766V51h-1v49H380V51zM12 51h-1v50h86v19h1v-19h85V51h-1v49H12V51zM903 51h-1v50h129v19h1v-19h129V51h-1v49H903V51z" fill="#2E3134"/><rect x="409" y="15" width="50" height="50" rx="6.25" fill="url(#paint6_linear_1201_24356)"/><path opacity=".3" d="M421.934 27.96a16.99 16.99 0 0111.067-4.978v4.556a12.443 12.443 0 00-7.795 3.578l-3.272-3.156z" fill="#fff"/><path d="M444.267 53.606c4.118-3.112 6.778-8.049 6.778-13.607 0-9.414-7.631-17.046-17.045-17.046V27.5c6.904 0 12.5 5.596 12.5 12.5 0 3.927-1.822 7.542-4.85 9.886l2.617 3.72z" fill="url(#paint7_linear_1201_24356)"/><path d="M419.889 49.562c3.066 4.515 8.242 7.482 14.111 7.482a16.97 16.97 0 009.339-2.784l-2.618-3.72A12.424 12.424 0 01434 52.498a12.485 12.485 0 01-10.263-5.361l-3.848 2.425z" fill="url(#paint8_linear_1201_24356)"/><path d="M416.955 39.997c0-4.29 1.586-8.212 4.203-11.208l3.277 3.16a12.439 12.439 0 00-2.934 8.048c0 2.202.567 4.313 1.63 6.178l-3.849 2.425a16.97 16.97 0 01-2.327-8.603z" fill="url(#paint9_linear_1201_24356)"/><path fill="#00BFFF" d="M409 78h50v2h-50z"/><rect x="469" y="15" width="50" height="50" rx="6.25" fill="url(#paint10_linear_1201_24356)"/><path fill-rule="evenodd" clip-rule="evenodd" d="M484 28.125h-5V51.25a3.75 3.75 0 003.75 3.75h23.75c.69 0 1.25-.56 1.25-1.25V32.5c0-.69-.56-1.25-1.25-1.25H484v-3.125z" fill="url(#paint11_linear_1201_24356)"/><mask id="c" style="mask-type:luminance" maskUnits="userSpaceOnUse" x="479" y="28" width="29" height="27"><path fill-rule="evenodd" clip-rule="evenodd" d="M484 28.125h-5V51.25a3.75 3.75 0 003.75 3.75h23.75c.69 0 1.25-.56 1.25-1.25V32.5c0-.69-.56-1.25-1.25-1.25H484v-3.125z" fill="#fff"/></mask><path d="M479 28.125A3.125 3.125 0 01482.125 25H499c.69 0 1.25.56 1.25 1.25v5h-18.125A3.125 3.125 0 01479 28.125z" fill="url(#paint12_linear_1201_24356)"/><mask id="d" style="mask-type:luminance" maskUnits="userSpaceOnUse" x="479" y="25" width="22" height="7"><path d="M479 28.125A3.125 3.125 0 01482.125 25H499c.69 0 1.25.56 1.25 1.25v5h-18.125A3.125 3.125 0 01479 28.125z" fill="#fff"/></mask><path fill-rule="evenodd" clip-rule="evenodd" d="M503.375 38.75a4.375 4.375 0 000 8.75H509v-8.75h-5.625zm0 6.25a1.875 1.875 0 100-3.75 1.875 1.875 0 000 3.75z" fill="url(#paint13_linear_1201_24356)"/><path opacity=".15" fill="#fff" d="M534 30h1v20h-1z"/><rect x="550" y="15" width="50" height="50" rx="6.25" fill="url(#paint14_linear_1201_24356)"/><path d="M581.024 25L590 32.5l-8.976 7.5v-5H566.25c-.69 0-1.25-.56-1.25-1.25v-2.5c0-.69.56-1.25 1.25-1.25h14.774v-5z" fill="url(#paint15_linear_1201_24356)"/><path d="M569.01 55L560 47.5l9.01-7.5v5h14.74c.69 0 1.25.56 1.25 1.25v2.5c0 .69-.56 1.25-1.25 1.25h-14.74v5z" fill="url(#paint16_linear_1201_24356)"/><path opacity=".15" fill="#fff" d="M615 30h1v20h-1z"/><rect x="631" y="15" width="50" height="50" rx="6.25" fill="url(#paint17_linear_1201_24356)"/><path opacity=".6" d="M640.963 50.97a3.926 3.926 0 01-1.963-3.4V32.474c0-1.402.749-2.699 1.963-3.4l4.865-2.808-.001 24.87c0 1.577.811 3.038 2.139 3.874l.15.09-7.153-4.13z" fill="url(#paint18_linear_1201_24356)"/><path opacity=".6" d="M654.038 21.526a3.926 3.926 0 013.926 0l13.073 7.548a3.926 3.926 0 011.963 3.4v5.617l-21.538-12.435a4.577 4.577 0 00-4.424-.085l-.153.085 7.153-4.13z" fill="url(#paint19_linear_1201_24356)"/><path opacity=".5" d="M672.999 47.572a3.925 3.925 0 01-1.963 3.4l-13.074 7.548a3.926 3.926 0 01-3.926 0l-4.864-2.809 21.539-12.435a4.579 4.579 0 002.285-3.789l.003-.175v8.26z" fill="url(#paint20_linear_1201_24356)"/><path d="M657.963 58.519a3.926 3.926 0 01-3.926 0l-13.074-7.549a3.926 3.926 0 01-1.963-3.4v-5.617l21.539 12.436a4.577 4.577 0 004.424.084l.153-.084-7.153 4.13z" fill="url(#paint21_linear_1201_24356)"/><path d="M671.038 29.075a3.927 3.927 0 011.962 3.4v15.096a3.925 3.925 0 01-1.963 3.4l-4.864 2.809V28.91a4.577 4.577 0 00-2.139-3.875l-.149-.09 7.153 4.13z" fill="url(#paint22_linear_1201_24356)"/><path d="M639 32.474c0-1.403.748-2.699 1.963-3.4l13.074-7.548a3.926 3.926 0 013.926 0l4.864 2.808-21.538 12.436a4.577 4.577 0 00-2.286 3.788l-.003.175v-8.26z" fill="url(#paint23_linear_1201_24356)"/><path fill-rule="evenodd" clip-rule="evenodd" d="M655 34h2v5h5v2h-5v5.996l-2-1.154V41h-5v-2h5v-5z" fill="#fff"/><rect x="691" y="15" width="50" height="50" rx="6.25" fill="url(#paint24_linear_1201_24356)"/><path d="M701.988 50.292l-3.207-3.203 3.207-3.21 9.466-9.465 7.206 7.206v6.412l-7.206-7.206-9.466 9.466z" fill="url(#paint25_linear_1201_24356)"/><path d="M715.473 44.84l3.186-3.222 10.087-10.087 3.206 3.206-13.293 13.293-3.186-3.19z" fill="url(#paint26_linear_1201_24356)"/><path fill-rule="evenodd" clip-rule="evenodd" d="M718.66 48.031l-.381-.38-10.031-10.031 3.206-3.206 9.787 9.786.624.624" fill="url(#paint27_linear_1201_24356)"/><path d="M723.455 29.875h10.687v10.687l-10.687-10.687z" fill="url(#paint28_linear_1201_24356)"/></g><defs><linearGradient id="paint0_linear_1201_24356" x1="908.5" y1="40.5" x2="937.5" y2="69.5" gradientUnits="userSpaceOnUse"><stop stop-color="#3F4142"/><stop offset="1" stop-color="#202223"/></linearGradient><linearGradient id="paint1_linear_1201_24356" x1="57.4" y1="58.2" x2="48.272" y2="20.486" gradientUnits="userSpaceOnUse"><stop stop-color="#0B46F9"/><stop offset="1" stop-color="#BBFBE0"/></linearGradient><linearGradient id="paint2_linear_1201_24356" x1="57.4" y1="58.2" x2="48.272" y2="20.486" gradientUnits="userSpaceOnUse"><stop stop-color="#0B46F9"/><stop offset="1" stop-color="#BBFBE0"/></linearGradient><linearGradient id="paint3_linear_1201_24356" x1="57.4" y1="58.2" x2="48.272" y2="20.486" gradientUnits="userSpaceOnUse"><stop stop-color="#0B46F9"/><stop offset="1" stop-color="#BBFBE0"/></linearGradient><linearGradient id="paint4_linear_1201_24356" x1="57.4" y1="58.2" x2="48.272" y2="20.486" gradientUnits="userSpaceOnUse"><stop stop-color="#0B46F9"/><stop offset="1" stop-color="#BBFBE0"/></linearGradient><linearGradient id="paint5_linear_1201_24356" x1="32.4" y1="31.2" x2="48.2" y2="43" gradientUnits="userSpaceOnUse"><stop offset=".12" stop-color="#8952FF" stop-opacity=".87"/><stop offset="1" stop-color="#DABDFF" stop-opacity="0"/></linearGradient><linearGradient id="paint6_linear_1201_24356" x1="484" y1="40" x2="434" y2="-10" gradientUnits="userSpaceOnUse"><stop stop-color="#0C0E0F"/><stop offset="1" stop-color="#23282B"/></linearGradient><linearGradient id="paint7_linear_1201_24356" x1="426.504" y1="33.894" x2="445.496" y2="50.22" gradientUnits="userSpaceOnUse"><stop stop-color="#556FF2"/><stop offset="1" stop-color="#00BFFF"/></linearGradient><linearGradient id="paint8_linear_1201_24356" x1="446.593" y1="48.215" x2="434.118" y2="35.795" gradientUnits="userSpaceOnUse"><stop stop-color="#8C66FF"/><stop offset="1" stop-color="#5C26FF"/></linearGradient><linearGradient id="paint9_linear_1201_24356" x1="424.489" y1="50.846" x2="434.206" y2="38.613" gradientUnits="userSpaceOnUse"><stop stop-color="#FF9F1A"/><stop offset="1" stop-color="#FC3"/></linearGradient><linearGradient id="paint10_linear_1201_24356" x1="544" y1="40" x2="494" y2="-10" gradientUnits="userSpaceOnUse"><stop stop-color="#0C0E0F"/><stop offset="1" stop-color="#23282B"/></linearGradient><linearGradient id="paint11_linear_1201_24356" x1="522.125" y1="41.563" x2="495.311" y2="12.878" gradientUnits="userSpaceOnUse"><stop stop-color="#5C26FF"/><stop offset="1" stop-color="#8C66FF"/></linearGradient><linearGradient id="paint12_linear_1201_24356" x1="510.875" y1="28.125" x2="507.491" y2="16.62" gradientUnits="userSpaceOnUse"><stop stop-color="#556FF2"/><stop offset="1" stop-color="#00BFFF"/></linearGradient><linearGradient id="paint13_linear_1201_24356" x1="508.361" y1="48.236" x2="510.444" y2="40.448" gradientUnits="userSpaceOnUse"><stop stop-color="#FF9F1A"/><stop offset="1" stop-color="#FC3"/></linearGradient><linearGradient id="paint14_linear_1201_24356" x1="625" y1="40" x2="575" y2="-10" gradientUnits="userSpaceOnUse"><stop stop-color="#0C0E0F"/><stop offset="1" stop-color="#23282B"/></linearGradient><linearGradient id="paint15_linear_1201_24356" x1="588.403" y1="41.262" x2="590.941" y2="27.422" gradientUnits="userSpaceOnUse"><stop stop-color="#FF9F19"/><stop offset="1" stop-color="#FC3"/></linearGradient><linearGradient id="paint16_linear_1201_24356" x1="547.499" y1="47.5" x2="560.734" y2="69.559" gradientUnits="userSpaceOnUse"><stop stop-color="#556FF2"/><stop offset="1" stop-color="#00BFFF"/></linearGradient><linearGradient id="paint17_linear_1201_24356" x1="706" y1="40" x2="656" y2="-10" gradientUnits="userSpaceOnUse"><stop stop-color="#0C0E0F"/><stop offset="1" stop-color="#23282B"/></linearGradient><linearGradient id="paint18_linear_1201_24356" x1="644.77" y1="51.43" x2="644.77" y2="35.953" gradientUnits="userSpaceOnUse"><stop stop-color="#D6D8C1"/><stop offset="1" stop-color="#43C4DE"/></linearGradient><linearGradient id="paint19_linear_1201_24356" x1="647.347" y1="26.396" x2="655.034" y2="37.767" gradientUnits="userSpaceOnUse"><stop stop-color="#1E5887"/><stop offset="1" stop-color="#53BEC4"/></linearGradient><linearGradient id="paint20_linear_1201_24356" x1="665.866" y1="37.986" x2="648.788" y2="52.876" gradientUnits="userSpaceOnUse"><stop stop-color="#0094FF"/><stop offset=".999" stop-color="#3D19AA"/></linearGradient><linearGradient id="paint21_linear_1201_24356" x1="668.965" y1="51.013" x2="655.952" y2="33.261" gradientUnits="userSpaceOnUse"><stop offset=".001" stop-color="#3D19AA"/><stop offset="1" stop-color="#0094FF"/></linearGradient><linearGradient id="paint22_linear_1201_24356" x1="666.214" y1="28.037" x2="666.214" y2="51.784" gradientUnits="userSpaceOnUse"><stop stop-color="#53BEC4"/><stop offset="1" stop-color="#1E5887"/></linearGradient><linearGradient id="paint23_linear_1201_24356" x1="646.227" y1="43.033" x2="664.079" y2="27.878" gradientUnits="userSpaceOnUse"><stop stop-color="#43C4DE"/><stop offset="1" stop-color="#D6D8C1"/></linearGradient><linearGradient id="paint24_linear_1201_24356" x1="766" y1="40" x2="716" y2="-10" gradientUnits="userSpaceOnUse"><stop stop-color="#0C0E0F"/><stop offset="1" stop-color="#23282B"/></linearGradient><linearGradient id="paint25_linear_1201_24356" x1="714.353" y1="35.473" x2="696.111" y2="45.369" gradientUnits="userSpaceOnUse"><stop stop-color="#556FF2"/><stop offset="1" stop-color="#00BFFF"/></linearGradient><linearGradient id="paint26_linear_1201_24356" x1="730.9" y1="49.418" x2="735.301" y2="35.029" gradientUnits="userSpaceOnUse"><stop stop-color="#FF9F1A"/><stop offset="1" stop-color="#FC3"/></linearGradient><linearGradient id="paint27_linear_1201_24356" x1="715.056" y1="27.605" x2="701.439" y2="41.221" gradientUnits="userSpaceOnUse"><stop stop-color="#5C26FF"/><stop offset="1" stop-color="#8C66FF"/></linearGradient><linearGradient id="paint28_linear_1201_24356" x1="733.46" y1="41.461" x2="736.308" y2="32.139" gradientUnits="userSpaceOnUse"><stop stop-color="#FF9F1A"/><stop offset="1" stop-color="#FC3"/></linearGradient><clipPath id="clip0_1201_24356"><path fill="#fff" d="M0 0h1170v120H0z"/></clipPath></defs></svg>