<svg width="72" height="72" xmlns="http://www.w3.org/2000/svg"><defs><linearGradient x1="100%" y1="44.598%" x2="0%" y2="55.402%" id="a"><stop stop-color="#5C26FF" offset="0%"/><stop stop-color="#8C66FF" offset="100%"/></linearGradient><linearGradient x1="72.219%" y1="100%" x2="27.781%" y2="0%" id="b"><stop stop-color="#556FF2" offset="0%"/><stop stop-color="#00BFFF" offset="100%"/></linearGradient><linearGradient x1="27.782%" y1="100%" x2="72.218%" y2="0%" id="c"><stop stop-color="#FF9F19" offset="0%"/><stop stop-color="#FC3" offset="100%"/></linearGradient></defs><g fill="none" fill-rule="evenodd"><path d="M62.851 51.502l4.33 2.502C60.958 64.762 49.325 72 36 72c-13.322 0-24.954-7.237-31.18-17.993l4.33-2.5C14.513 60.768 24.529 67 36 67c11.473 0 21.491-6.233 26.851-15.498z" fill="url(#a)" fill-rule="nonzero"/><path d="M36.001 0C55.882 0 72 16.118 72 36a35.834 35.834 0 01-4.818 18.003l-4.33-2.502A30.857 30.857 0 0067 36C67 18.88 53.121 5 36.001 5V0z" fill="url(#b)" fill-rule="nonzero"/><path d="M35.999 0v4.999l-.512.005C18.603 5.278 5 19.05 5 36c0 5.648 1.51 10.943 4.15 15.503l-4.331 2.502A35.834 35.834 0 010 36C0 16.118 16.117 0 35.999 0z" fill="url(#c)" fill-rule="nonzero"/><path d="M34.17 46.226l-9.9-9.9 3.536-3.535 6.363 6.364L46.19 27.134l3.536 3.535-15.557 15.557z" fill="#FFF"/></g></svg>