<svg width="68" height="111" viewBox="0 0 68 111" fill="none" xmlns="http://www.w3.org/2000/svg">
<path opacity="0.25" fill-rule="evenodd" clip-rule="evenodd" d="M34 21L51 25.5551L63.4449 38L68 55L63.4449 72L51 84.4449L34 89L17 84.4449L4.55514 72L0 55L4.55514 38L17 25.5551L34 21Z" fill="url(#paint0_linear_71_100)"/>
<path opacity="0.5" fill-rule="evenodd" clip-rule="evenodd" d="M34 26L48.5 29.8853L59.1147 40.5L63 55L59.1147 69.5L48.5 80.1147L34 84L19.5 80.1147L8.88526 69.5L5 55L8.88526 40.5L19.5 29.8853L34 26Z" fill="url(#paint1_linear_71_100)"/>
<mask id="mask0_71_100" style="mask-type:alpha" maskUnits="userSpaceOnUse" x="34" y="21" width="34" height="68">
<path d="M34 21L51 25.5551L63.4449 38L68 55L63.4449 72L51 84.4449L34 89V21Z" fill="white"/>
</mask>
<g mask="url(#mask0_71_100)">
<g filter="url(#filter0_d_71_100)">
<path d="M34 21L51 25.5551L63.4449 38L68 55L63.4449 72L51 84.4449L34 89V21Z" fill="black"/>
</g>
<path fill-rule="evenodd" clip-rule="evenodd" d="M47.2398 6.23978L66.3317 25.3317L31.3891 60.2743L12.2972 41.1824L47.2398 6.23978Z" fill="url(#paint2_linear_71_100)"/>
<path fill-rule="evenodd" clip-rule="evenodd" d="M61.9646 24.9646L76.1068 39.1068L34.4142 80.7994L20.272 66.6572L61.9646 24.9646Z" fill="url(#paint3_linear_71_100)"/>
<path fill-rule="evenodd" clip-rule="evenodd" d="M69.4646 44.4646L83.6068 58.6068L43.6068 98.6068L29.4646 84.4646L69.4646 44.4646Z" fill="url(#paint4_linear_71_100)"/>
</g>
<path fill-rule="evenodd" clip-rule="evenodd" d="M34 26L48.5 29.8853L59.1147 40.5L63 55L59.1147 69.5L48.5 80.1147L34 84V26Z" fill="url(#paint5_linear_71_100)"/>
<path opacity="0.4" d="M34 0L34 111" stroke="white" stroke-dasharray="1 4"/>
<path fill-rule="evenodd" clip-rule="evenodd" d="M25.9819 44.6535L33.7601 52.4316L41.5383 44.6535L44.3667 47.4819L36.5885 55.2601L44.3667 63.0382L41.5383 65.8667L33.7601 58.0885L25.9819 65.8667L23.1535 63.0382L30.9317 55.2601L23.1535 47.4819L25.9819 44.6535Z" fill="white"/>
<defs>
<filter id="filter0_d_71_100" x="12" y="4" width="78" height="112" filterUnits="userSpaceOnUse" color-interpolation-filters="sRGB">
<feFlood flood-opacity="0" result="BackgroundImageFix"/>
<feColorMatrix in="SourceAlpha" type="matrix" values="0 0 0 0 0 0 0 0 0 0 0 0 0 0 0 0 0 0 127 0" result="hardAlpha"/>
<feOffset dy="5"/>
<feGaussianBlur stdDeviation="11"/>
<feColorMatrix type="matrix" values="0 0 0 0 0 0 0 0 0 0 0 0 0 0 0 0 0 0 0.2 0"/>
<feBlend mode="normal" in2="BackgroundImageFix" result="effect1_dropShadow_71_100"/>
<feBlend mode="normal" in="SourceGraphic" in2="effect1_dropShadow_71_100" result="shape"/>
</filter>
<linearGradient id="paint0_linear_71_100" x1="0" y1="21" x2="69.36" y2="89.68" gradientUnits="userSpaceOnUse">
<stop stop-color="white" stop-opacity="0.1"/>
<stop offset="1" stop-color="white" stop-opacity="0.5"/>
</linearGradient>
<linearGradient id="paint1_linear_71_100" x1="64.16" y1="84.58" x2="6.57624" y2="27.5608" gradientUnits="userSpaceOnUse">
<stop stop-color="white" stop-opacity="0.1"/>
<stop offset="1" stop-color="white" stop-opacity="0.5"/>
</linearGradient>
<linearGradient id="paint2_linear_71_100" x1="28.826" y1="60.2743" x2="50.9185" y2="6.23978" gradientUnits="userSpaceOnUse">
<stop stop-color="#556FF2"/>
<stop offset="1" stop-color="#00BFFF"/>
</linearGradient>
<linearGradient id="paint3_linear_71_100" x1="33.7602" y1="80.7994" x2="63.1571" y2="24.9646" gradientUnits="userSpaceOnUse">
<stop stop-color="#5C26FF"/>
<stop offset="1" stop-color="#8C66FF"/>
</linearGradient>
<linearGradient id="paint4_linear_71_100" x1="43.6338" y1="98.6068" x2="71.8609" y2="44.4646" gradientUnits="userSpaceOnUse">
<stop stop-color="#FF9F19"/>
<stop offset="1" stop-color="#FFCC33"/>
</linearGradient>
<linearGradient id="paint5_linear_71_100" x1="48.5" y1="26" x2="48.5" y2="84" gradientUnits="userSpaceOnUse">
<stop stop-opacity="0.15"/>
<stop offset="1" stop-color="white" stop-opacity="0"/>
</linearGradient>
</defs>
</svg>
