<svg width="157" height="557" xmlns="http://www.w3.org/2000/svg"><defs><linearGradient x1="0%" y1="62.61%" x2="86.276%" y2="21.306%" id="a"><stop stop-color="#43C4DE" offset="0%"/><stop stop-color="#D6D8C1" offset="100%"/></linearGradient><linearGradient x1="79.33%" y1="68.367%" x2="0%" y2="37.884%" id="b"><stop stop-color="#3D19AA" offset=".052%"/><stop stop-color="#0094FF" offset="100%"/></linearGradient><linearGradient x1="66.735%" y1="10.722%" x2="66.735%" y2="93.079%" id="c"><stop stop-color="#53BEC4" offset="0%"/><stop stop-color="#1E5887" offset="100%"/></linearGradient></defs><g fill-rule="nonzero" fill="none"><path d="M0 68.611a23.462 23.462 0 0111.782-20.33L90.245 3.144a23.637 23.637 0 0123.562 0L143 19.94 13.735 94.298A27.355 27.355 0 00.02 116.955L0 118V68.611z" fill="url(#a)"/><path d="M114 553.83a23.553 23.553 0 01-23.603 0L11.8 508.34A23.671 23.671 0 010 487.85V454l129.484 74.943a27.457 27.457 0 0026.596.51l.92-.51-43 24.888z" fill="url(#b)"/><path d="M43.157 211.777C50.486 215.985 55 223.76 55 232.177l-.002 90.574c0 8.415-4.515 16.192-11.844 20.4L13.805 360l.003-149.218c0-9.46-4.894-18.228-12.905-23.24L0 187l43.157 24.777z" fill="url(#c)"/></g></svg>